<svg width="1600" height="900" viewBox="0 0 1600 900" fill="none" xmlns="http://www.w3.org/2000/svg">
  <rect width="1600" height="900" rx="24" fill="#0F172A"/>
  <rect x="60" y="60" width="1480" height="780" rx="18" fill="#1E293B"/>
  <rect x="120" y="140" width="320" height="640" rx="12" fill="#334155"/>
  <rect x="480" y="140" width="320" height="640" rx="12" fill="#334155"/>
  <rect x="840" y="140" width="320" height="640" rx="12" fill="#334155"/>
  <rect x="1200" y="140" width="280" height="640" rx="12" fill="#334155"/>
  <rect x="150" y="200" width="260" height="90" rx="10" fill="#475569"/>
  <rect x="150" y="320" width="260" height="90" rx="10" fill="#475569"/>
  <rect x="510" y="200" width="260" height="90" rx="10" fill="#64748B"/>
  <rect x="510" y="320" width="260" height="90" rx="10" fill="#64748B"/>
  <rect x="870" y="200" width="260" height="90" rx="10" fill="#94A3B8"/>
  <rect x="1230" y="200" width="220" height="90" rx="10" fill="#94A3B8"/>
  <text x="120" y="108" fill="#E2E8F0" font-family="Inter, Arial, sans-serif" font-size="34" font-weight="700">MyTodo kanban board preview</text>
</svg>
